<?xml version="1.0" standalone="no"?>
<!DOCTYPE svg PUBLIC "-//W3C//DTD SVG 20010904//EN"
 "http://www.w3.org/TR/2001/REC-SVG-20010904/DTD/svg10.dtd">
<svg version="1.0" xmlns="http://www.w3.org/2000/svg"
 width="256.000000pt" height="256.000000pt" viewBox="0 0 256.000000 256.000000"
 preserveAspectRatio="xMidYMid meet">
<metadata>
Created by potrace 1.14, written by Peter Selinger 2001-2017
</metadata>
<g transform="translate(0.000000,256.000000) scale(0.100000,-0.100000)"
fill="#000000" stroke="none">
<path d="M846 2423 c-4 -4 -12 -8 -19 -9 -7 -2 -25 -6 -42 -9 -16 -3 -32 -11
-36 -16 -3 -6 -9 -9 -12 -7 -4 1 -16 -5 -27 -14 -11 -10 -23 -18 -26 -18 -16
0 -96 -114 -87 -124 4 -3 2 -6 -4 -6 -6 0 -14 -10 -18 -22 -11 -33 -12 -38
-15 -40 -1 -2 -4 -16 -6 -32 -3 -16 -10 -38 -15 -48 -7 -13 -6 -18 2 -18 8 0
8 -4 1 -12 -5 -7 -8 -44 -6 -83 5 -98 8 -115 17 -115 4 0 7 -6 5 -12 -3 -16
54 -138 64 -138 5 0 8 -7 8 -15 0 -8 5 -15 10 -15 6 0 10 -5 10 -11 0 -7 11
-22 26 -35 14 -13 22 -24 19 -24 -3 0 14 -20 39 -44 24 -24 42 -47 39 -50 -4
-3 -2 -6 4 -6 6 0 27 -16 46 -35 19 -19 40 -35 47 -35 6 0 8 -5 5 -10 -3 -5
-1 -10 4 -10 11 0 38 -20 76 -57 13 -12 25 -20 27 -18 2 3 21 -11 41 -30 20
-19 40 -34 43 -34 7 2 40 -19 60 -39 8 -7 18 -11 23 -8 5 4 11 2 13 -2 6 -14
95 -71 102 -65 3 4 6 1 6 -5 0 -7 5 -12 12 -12 6 0 19 -7 29 -16 13 -12 19
-12 25 -3 5 8 3 10 -7 5 -8 -4 -5 0 5 8 11 9 15 16 9 16 -14 0 -22 58 -9 64 7
3 6 5 -1 5 -7 1 -10 7 -8 14 3 6 7 28 9 47 5 36 13 75 16 75 1 0 3 7 5 15 5
29 47 110 57 110 5 0 7 4 4 9 -5 7 3 20 44 69 6 6 8 12 5 12 -3 0 4 9 15 20
11 11 20 25 20 31 0 5 5 7 10 4 6 -3 10 -2 10 3 0 5 8 19 18 31 9 11 26 33 37
47 11 14 25 31 32 39 7 7 9 15 6 19 -4 3 -1 6 5 6 10 0 24 29 19 41 -1 3 6 13
16 23 9 10 18 24 18 32 1 14 4 27 9 42 1 4 2 10 1 15 0 4 4 7 10 7 6 0 9 6 6
14 -3 8 -1 17 6 20 9 3 8 5 -1 5 -9 1 -10 6 -3 19 6 11 6 24 1 32 -5 9 -4 20
2 28 8 9 8 16 1 20 -5 4 -9 16 -7 27 2 11 -3 33 -11 49 -8 16 -12 32 -9 37 3
5 1 9 -4 9 -5 0 -15 14 -22 30 -7 17 -17 30 -22 30 -5 0 -6 5 -3 10 3 6 -1 10
-9 10 -8 0 -18 9 -21 20 -4 11 -11 18 -16 15 -5 -4 -9 1 -9 9 0 9 -7 16 -16
16 -8 0 -13 4 -10 8 3 5 -23 23 -57 40 -34 17 -63 27 -65 21 -2 -5 -11 -5 -23
1 -13 8 -19 7 -19 0 0 -6 -4 -9 -9 -6 -12 8 -72 -14 -95 -35 -10 -10 -24 -15
-30 -12 -6 3 -8 3 -5 -1 4 -4 -10 -25 -31 -46 -21 -21 -36 -41 -34 -43 3 -3
-2 -7 -11 -11 -9 -3 -14 -2 -11 3 3 5 -1 11 -9 15 -8 3 -15 10 -15 15 0 15
-57 71 -64 64 -3 -4 -6 0 -6 7 0 7 -3 10 -7 7 -3 -4 -12 2 -20 13 -8 11 -25
20 -38 20 -13 0 -25 4 -27 9 -1 5 -25 12 -52 15 -27 4 -53 9 -56 11 -4 3 -10
1 -14 -2z"/>
<path d="M1940 1757 c0 -5 -4 -6 -8 -3 -12 7 -126 -55 -164 -89 -18 -16 -36
-29 -40 -28 -4 2 -9 -6 -13 -16 -3 -11 -17 -26 -30 -35 -14 -9 -25 -23 -25
-32 0 -8 -4 -12 -10 -9 -5 3 -10 -1 -10 -9 0 -9 -4 -16 -9 -16 -5 0 -12 -8
-15 -17 -3 -10 -16 -29 -28 -43 -13 -14 -23 -29 -24 -35 -3 -25 -17 -55 -26
-55 -6 0 -8 -7 -4 -15 3 -8 2 -15 -3 -15 -4 0 -14 -19 -21 -42 -19 -61 -21
-71 -21 -90 0 -10 -3 -18 -7 -18 -9 0 -9 -76 1 -86 4 -4 7 -2 7 4 0 6 9 9 20
7 11 -2 20 0 20 6 0 5 3 8 8 7 4 -1 30 3 57 10 87 22 131 30 180 35 17 2 35 5
40 8 6 3 36 5 67 5 32 -1 58 3 58 9 0 6 5 3 10 -5 5 -8 10 -10 10 -5 0 14 53
13 62 0 5 -7 8 -7 8 0 0 6 37 9 95 8 52 -1 97 2 100 8 4 5 11 7 16 4 5 -4 9
-2 9 4 0 6 7 8 15 5 8 -4 15 -1 15 5 0 6 6 11 13 11 18 0 49 35 40 44 -5 4 -1
6 7 4 8 -2 14 5 15 17 1 11 5 31 10 45 11 32 13 70 3 70 -4 0 -5 6 -2 14 11
28 -41 93 -97 121 -19 10 -43 25 -53 34 -11 9 -16 10 -12 4 4 -7 2 -13 -3 -13
-6 0 -11 4 -11 9 0 5 -13 11 -29 14 -23 5 -29 11 -29 34 0 73 -16 102 -70 130
-25 13 -122 13 -122 0z"/>
<path d="M360 1320 c0 -5 -10 -6 -22 -2 -16 4 -19 2 -13 -8 6 -10 4 -12 -8 -7
-17 7 -117 -39 -117 -54 0 -6 -4 -7 -10 -4 -5 3 -10 1 -10 -5 0 -6 -4 -9 -9
-5 -6 3 -13 0 -18 -8 -4 -7 -21 -23 -37 -35 -16 -12 -25 -22 -20 -22 5 0 1 -6
-8 -13 -25 -20 -65 -101 -61 -125 1 -12 -1 -22 -7 -22 -5 0 -5 -12 2 -31 6
-16 8 -33 4 -36 -3 -3 -1 -12 5 -20 6 -7 9 -13 5 -13 -3 0 2 -9 11 -19 10 -10
30 -33 46 -50 15 -17 27 -29 27 -25 0 3 16 -4 35 -16 19 -12 35 -18 35 -15 0
4 7 2 15 -5 8 -7 22 -10 30 -6 8 3 15 1 15 -5 0 -6 4 -8 8 -5 4 2 13 1 20 -3
9 -5 7 -12 -6 -27 -10 -11 -17 -25 -14 -32 2 -6 -1 -12 -8 -12 -6 0 -9 -4 -5
-9 3 -5 1 -12 -4 -15 -11 -7 -11 -116 0 -116 5 0 9 -7 9 -15 0 -7 8 -19 18
-24 9 -6 13 -11 7 -11 -18 0 80 -46 128 -59 26 -8 73 -14 105 -14 59 -1 152
21 152 36 0 4 5 5 10 2 6 -3 10 -1 10 5 0 6 4 9 9 6 5 -3 25 10 45 28 20 19
36 32 36 29 0 -8 60 61 60 69 0 4 6 13 14 20 7 8 28 42 46 76 18 34 36 62 42
62 5 0 7 4 4 8 -6 10 50 92 71 105 8 5 11 12 8 18 -4 5 1 9 9 9 9 0 16 7 16
16 0 8 5 12 10 9 6 -3 13 1 16 9 3 9 12 16 20 16 8 0 14 4 14 9 0 5 11 12 25
15 16 4 23 11 19 18 -4 6 -3 8 4 4 6 -3 14 -1 17 5 4 5 13 8 21 5 8 -3 14 -1
14 5 0 6 6 9 14 6 8 -3 19 0 25 7 8 9 2 17 -22 29 -17 10 -50 29 -72 43 -22
13 -48 27 -57 31 -10 3 -18 10 -18 15 0 6 -6 8 -14 5 -8 -3 -22 3 -31 13 -10
11 -22 17 -26 14 -5 -3 -9 0 -9 5 0 6 -9 11 -20 11 -11 0 -20 5 -20 11 0 5 -4
8 -9 4 -5 -3 -15 0 -23 7 -7 7 -19 14 -26 16 -6 1 -18 3 -24 5 -7 1 -15 5 -18
8 -9 11 -102 39 -111 33 -5 -3 -9 0 -9 6 0 6 -4 8 -10 5 -5 -3 -10 -2 -10 4 0
5 -8 8 -17 7 -10 -2 -20 0 -23 4 -3 5 -21 9 -40 11 -19 2 -39 6 -45 9 -14 10
-225 9 -225 0z"/>
<path d="M1996 1083 c-3 -4 -25 -8 -49 -9 -23 -2 -61 -4 -85 -5 -24 -2 -45 -6
-48 -11 -3 -4 -10 -8 -15 -8 -6 0 -7 5 -3 12 5 7 3 8 -5 4 -7 -5 -27 -10 -44
-12 -18 -3 -43 -7 -57 -11 -33 -8 -70 -14 -95 -16 -11 -1 -24 -5 -30 -8 -5 -4
-25 -10 -44 -14 l-34 -7 42 -27 c22 -14 44 -34 47 -43 3 -10 8 -17 12 -15 4 1
8 -1 10 -5 1 -4 14 -19 27 -34 14 -15 22 -30 19 -35 -3 -5 0 -9 6 -9 6 0 8 -4
5 -10 -3 -5 -1 -10 4 -10 6 0 11 -8 11 -18 0 -10 3 -22 7 -26 8 -8 14 -34 14
-58 0 -10 4 -18 8 -18 7 0 8 -8 14 -77 1 -18 5 -33 9 -33 5 0 8 -11 8 -24 0
-14 5 -28 10 -31 6 -4 8 -11 4 -16 -3 -6 2 -17 12 -24 11 -8 15 -15 10 -15 -5
0 -3 -7 4 -15 7 -8 9 -15 6 -15 -4 0 7 -13 23 -29 16 -16 27 -32 24 -35 -3 -3
6 -11 21 -17 14 -7 26 -16 26 -21 0 -4 7 -8 15 -8 8 0 15 -4 15 -10 0 -5 9
-10 20 -10 11 0 20 -5 20 -11 0 -6 7 -9 15 -6 8 4 17 1 21 -4 3 -6 15 -9 25
-6 11 3 19 2 19 -2 0 -11 84 -9 92 3 6 8 8 8 8 0 0 -15 29 -11 70 11 40 21 59
42 60 68 0 9 4 17 9 17 10 0 9 19 -1 35 -4 6 -3 17 2 25 5 7 3 24 -3 37 -8 19
-8 26 3 33 8 5 17 7 21 4 13 -7 80 -13 75 -6 -2 4 12 8 31 9 19 1 40 6 47 12
7 6 15 8 18 5 11 -10 88 79 88 103 0 12 4 23 8 23 11 0 9 51 -3 69 -5 10 -4
12 3 7 7 -4 12 -2 12 3 0 6 -5 11 -10 11 -6 0 -9 3 -9 8 1 4 1 9 -1 12 -1 3
-3 16 -6 30 -2 14 -11 30 -19 36 -8 6 -15 16 -15 22 0 6 -8 16 -17 21 -10 6
-15 11 -10 11 4 0 -18 25 -49 55 -31 30 -60 52 -64 50 -4 -3 -11 2 -14 10 -3
8 -9 14 -13 14 -4 -1 -17 1 -28 5 -11 4 -29 11 -40 15 -60 23 -85 29 -79 19 4
-7 2 -8 -5 -4 -16 10 -58 17 -111 20 -25 1 -50 5 -56 8 -6 4 -14 5 -18 1z"/>
<path d="M1336 949 c3 -5 -3 -13 -14 -17 -41 -16 -202 -162 -202 -184 0 -6 -3
-9 -6 -5 -7 7 -34 -17 -34 -30 0 -4 -12 -19 -25 -32 -14 -13 -24 -26 -21 -28
5 -5 -3 -16 -34 -50 -8 -9 -14 -17 -12 -17 3 -1 -11 -44 -25 -76 -11 -24 -11
-170 -1 -170 5 0 7 -4 3 -9 -3 -5 -1 -12 4 -16 5 -3 8 -14 6 -25 -2 -12 -1
-18 3 -16 4 3 14 -9 21 -25 7 -17 15 -28 18 -25 3 3 15 -4 27 -15 17 -16 32
-20 83 -17 35 1 63 6 63 11 0 4 5 5 10 2 6 -3 10 -2 10 4 0 8 40 27 48 22 7
-4 29 25 24 34 -3 6 10 -3 29 -20 19 -16 35 -33 37 -37 2 -5 10 -8 18 -8 8 0
17 -6 20 -13 2 -7 16 -14 30 -15 14 -1 31 -5 37 -9 17 -11 61 -10 69 2 5 6 8
5 8 -3 0 -20 78 27 102 60 11 16 16 28 11 28 -4 0 -1 5 7 10 8 5 15 17 16 27
1 10 4 29 9 42 5 16 4 21 -4 17 -8 -5 -8 0 -2 17 6 14 8 27 5 29 -2 3 -6 20
-8 39 -3 19 -6 36 -7 39 -3 8 -7 24 -8 38 0 7 -5 11 -10 8 -4 -3 -8 2 -8 12 0
40 -4 53 -13 47 -6 -3 -10 4 -10 18 0 13 -8 32 -17 43 -10 11 -19 26 -21 34
-2 8 -9 18 -15 22 -7 4 -8 8 -4 8 7 0 0 11 -31 45 -7 8 -10 15 -5 15 4 0 0 5
-9 11 -10 5 -18 15 -18 21 0 6 -10 19 -22 29 -11 11 -18 19 -15 19 4 0 -9 16
-28 36 -19 20 -35 40 -35 45 0 6 -4 7 -10 4 -5 -3 -10 0 -10 8 0 8 -9 17 -20
20 -11 3 -17 1 -14 -4z"/>
</g>
</svg>
